<svg width="461" height="461" viewBox="0 0 461 461" fill="none" xmlns="http://www.w3.org/2000/svg">
  <path fill-rule="evenodd" clip-rule="evenodd" d="M322.7 322.7V299.65C322.7 286.926 333.026 276.6 345.75 276.6H414.9V391.85C414.9 404.574 404.574 414.9 391.85 414.9H69.15C56.4264 414.9 46.1 404.574 46.1 391.85V276.6H115.25C127.974 276.6 138.3 286.926 138.3 299.65V322.7C138.3 348.17 158.93 368.8 184.4 368.8H276.6C302.07 368.8 322.7 348.17 322.7 322.7ZM276.6 276.6V322.7H184.4V276.6C184.4 251.13 163.77 230.5 138.3 230.5H46.1L82.9801 46.1H378.02L414.9 230.5H322.7C297.23 230.5 276.6 251.13 276.6 276.6ZM461 230.5L418.611 18.5326C416.445 7.74517 406.994 0 395.999 0H65.0012C54.0063 0 44.5558 7.74517 42.3891 18.5326L0 230.5V414.9C0 440.37 20.6297 461 46.1 461H414.9C440.37 461 461 440.37 461 414.9V230.5Z" fill="#127E83"/>
</svg>
