<svg width="394" height="394" viewBox="0 0 394 394" fill="none" xmlns="http://www.w3.org/2000/svg">
  <path d="M387.675 183.021L341.466 137.934V71.7806C341.466 66.5589 339.395 61.551 335.707 57.8587C332.02 54.1663 327.018 52.092 321.803 52.092H256.718L210.706 5.82385C208.878 3.97847 206.704 2.51375 204.308 1.51419C201.911 0.514625 199.341 0 196.746 0C194.15 0 191.58 0.514625 189.184 1.51419C186.787 2.51375 184.613 3.97847 182.785 5.82385L137.756 52.092H71.6879C66.4729 52.092 61.4715 54.1663 57.7839 57.8587C54.0964 61.551 52.0247 66.5589 52.0247 71.7806V137.934L5.81633 183.021C3.97333 184.851 2.5105 187.029 1.51223 189.428C0.51396 191.827 0 194.401 0 197C0 199.599 0.51396 202.173 1.51223 204.572C2.5105 206.971 3.97333 209.149 5.81633 210.979L52.0247 257.05V322.219C52.0247 327.441 54.0964 332.449 57.7839 336.141C61.4715 339.834 66.4729 341.908 71.6879 341.908H137.756L183.768 388.176C185.596 390.022 187.771 391.486 190.167 392.486C192.563 393.485 195.133 394 197.729 394C200.324 394 202.895 393.485 205.291 392.486C207.687 391.486 209.862 390.022 211.69 388.176L257.701 341.908H322.786C328.001 341.908 333.003 339.834 336.69 336.141C340.378 332.449 342.45 327.441 342.45 322.219V257.05L388.658 210.979C390.438 209.084 391.826 206.855 392.74 204.421C393.655 201.986 394.079 199.394 393.988 196.795C393.896 194.195 393.291 191.639 392.208 189.275C391.124 186.911 389.584 184.786 387.675 183.021ZM308.039 234.999C306.181 236.822 304.703 238.997 303.69 241.396C302.678 243.796 302.151 246.373 302.14 248.978V302.531H248.656C246.055 302.542 243.481 303.069 241.085 304.083C238.688 305.097 236.517 306.577 234.695 308.437L196.746 346.436L158.796 308.437C156.975 306.577 154.803 305.097 152.406 304.083C150.01 303.069 147.436 302.542 144.835 302.531H91.351V248.978C91.3402 246.373 90.8133 243.796 89.8007 241.396C88.7881 238.997 87.31 236.822 85.4521 234.999L47.5022 197L85.4521 159.001C87.31 157.178 88.7881 155.003 89.8007 152.604C90.8133 150.204 91.3402 147.627 91.351 145.022V91.4692H144.835C147.436 91.4584 150.01 90.9307 152.406 89.9168C154.803 88.9029 156.975 87.423 158.796 85.5626L196.746 47.5636L234.695 85.5626C236.517 87.423 238.688 88.9029 241.085 89.9168C243.481 90.9307 246.055 91.4584 248.656 91.4692H302.14V145.022C302.151 147.627 302.678 150.204 303.69 152.604C304.703 155.003 306.181 157.178 308.039 159.001L345.989 197L308.039 234.999Z" fill="#127E83"/>
</svg>
